<?xml version="1.0" encoding="utf-8"?>
<!-- Generator: Adobe Illustrator 25.4.0, SVG Export Plug-In . SVG Version: 6.00 Build 0)  -->
<svg version="1.1" id="圖層_1" xmlns="http://www.w3.org/2000/svg" xmlns:xlink="http://www.w3.org/1999/xlink" x="0px" y="0px"
	 viewBox="0 0 45 66" style="enable-background:new 0 0 45 66;" xml:space="preserve">
<style type="text/css">
	.st0{fill:#FFFFFF;}
	.st1{fill:#0D0D0D;}
</style>
<g id="Path_2468">
	<path class="st0" d="M1.9,65.5c-0.7-0.1-1.3-0.7-1.4-1.4l0-62.2c0-0.8,0.7-1.4,1.5-1.4c0,0,40.9,0,40.9,0c0.9,0,1.5,0.6,1.6,1.4
		l0,62.2c0,0.8-0.7,1.4-1.5,1.4L1.9,65.5z"/>
	<path d="M43,1c0.5,0,1,0.4,1,0.9l0,62.2c0,0.5-0.5,0.9-1,0.9l-0.1,0H2.1l-0.2,0C1.4,65,1,64.6,1,64.1L1,1.9C1,1.4,1.5,1,2,1l0.1,0
		L43,1L43,1 M43,0C43,0,43,0,43,0L2.1,0C2,0,2,0,2,0C0.9,0,0,0.8,0,1.9v62.2C0,65.2,0.9,66,2,66c0,0,0.1,0,0.1,0v0h40.9
		c0,0,0.1,0,0.1,0c1.1,0,1.9-0.8,2-1.9V1.9C45,0.8,44.1,0,43,0L43,0z"/>
</g>
<g>
	<path class="st1" d="M24.3,49.9c-1.9-2.1-4.9-0.9-4.9-0.9c0.8-0.9,1.4-1.6,1.3-3.1c0,0,0-0.1,0-0.1c0-2.6-2.4-4.7-5.2-4.1
		c-1.5,0.3-2.7,1.5-3.1,3c-0.2,0.7-0.2,1.3,0,1.9c0.1,1,0.6,1.6,1.3,2.4c0,0-3-1.3-4.9,0.9c-1.9,2.1-1,4.6-0.4,5.5
		c0.6,0.8,1.5,2.2,3.7,2.1c1.9-0.1,2.2-0.5,3.5-1.5c-0.1,0.9-0.4,1.8-1,2.5c-0.5,0.7-1.2,1.3-1.7,1.7c-0.3,0.2-0.1,0.6,0.2,0.6h3.4
		h3.5c0.3,0,0.5-0.4,0.3-0.6c-0.5-0.5-1.2-1.2-1.6-1.8c-0.7-0.9-1.2-1.9-1.1-2.5c1.3,1,1.6,1.3,3.5,1.5c2.2,0.2,3.1-1.2,3.7-2.1
		C25.2,54.5,26.2,52,24.3,49.9z"/>
</g>
<g>
	<path d="M12.3,34.5v-23h4.6v10.2l9.4-10.2h6.2l-8.6,8.9l9.1,14h-6l-6.3-10.8l-3.8,3.8v6.9H12.3z"/>
</g>
</svg>
