<?xml version="1.0" encoding="utf-8"?>
<!-- Generator: Adobe Illustrator 24.1.1, SVG Export Plug-In . SVG Version: 6.00 Build 0)  -->
<svg version="1.1" id="圖層_1" xmlns="http://www.w3.org/2000/svg" xmlns:xlink="http://www.w3.org/1999/xlink" x="0px" y="0px"
	 viewBox="0 0 45 66" style="enable-background:new 0 0 45 66;" xml:space="preserve">
<style type="text/css">
	.st0{fill:#FFFFFF;}
	.st1{fill:#0D0D0D;}
</style>
<g id="Path_2468">
	<path class="st0" d="M1.9,65.5c-0.7-0.1-1.3-0.7-1.4-1.4V1.9c0-0.8,0.7-1.4,1.5-1.4h40.9c0.9,0,1.5,0.6,1.6,1.4v62.2
		c0,0.8-0.7,1.4-1.5,1.4H1.9z"/>
	<path d="M43,1c0.5,0,1,0.4,1,0.9v62.2c0,0.5-0.5,0.9-1,0.9h-0.1H2.1H1.9C1.4,65,1,64.6,1,64.1V1.9C1,1.4,1.5,1,2,1h0.1H43L43,1
		 M43,0L43,0H2.1C2,0,2,0,2,0C0.9,0,0,0.8,0,1.9v62.2C0,65.2,0.9,66,2,66h0.1l0,0H43h0.1c1.1,0,1.9-0.8,2-1.9V1.9
		C45,0.8,44.1,0,43,0L43,0z"/>
</g>
<g>
	<path class="st1" d="M24.3,49.9c-1.9-2.1-4.9-0.9-4.9-0.9c0.8-0.9,1.4-1.6,1.3-3.1v-0.1c0-2.6-2.4-4.7-5.2-4.1
		c-1.5,0.3-2.7,1.5-3.1,3c-0.2,0.7-0.2,1.3,0,1.9c0.1,1,0.6,1.6,1.3,2.4c0,0-3-1.3-4.9,0.9c-1.9,2.1-1,4.6-0.4,5.5
		c0.6,0.8,1.5,2.2,3.7,2.1c1.9-0.1,2.2-0.5,3.5-1.5c-0.1,0.9-0.4,1.8-1,2.5c-0.5,0.7-1.2,1.3-1.7,1.7c-0.3,0.2-0.1,0.6,0.2,0.6h3.4
		H20c0.3,0,0.5-0.4,0.3-0.6c-0.5-0.5-1.2-1.2-1.6-1.8c-0.7-0.9-1.2-1.9-1.1-2.5c1.3,1,1.6,1.3,3.5,1.5c2.2,0.2,3.1-1.2,3.7-2.1
		C25.2,54.5,26.2,52,24.3,49.9z"/>
</g>
<text transform="matrix(1 0 0 1 624.7932 1685.2859)" style="font-family:'Arial-BoldMT'; font-size:32.0878px; letter-spacing:-1;">5</text>
<g>
	<path d="M34.6,34.5h-5l-2-5.2h-9.2l-1.9,5.2h-4.9l8.9-23h4.9L34.6,34.5z M26,25.4l-3.2-8.5l-3.1,8.5H26z"/>
</g>
</svg>
