<?xml version="1.0" encoding="utf-8"?>
<!-- Generator: Adobe Illustrator 25.4.0, SVG Export Plug-In . SVG Version: 6.00 Build 0)  -->
<svg version="1.1" id="圖層_1" xmlns="http://www.w3.org/2000/svg" xmlns:xlink="http://www.w3.org/1999/xlink" x="0px" y="0px"
	 viewBox="0 0 45 66" style="enable-background:new 0 0 45 66;" xml:space="preserve">
<style type="text/css">
	.st0{fill:#FFFFFF;}
	.st1{enable-background:new    ;}
	.st2{fill:#191919;}
</style>
<g id="Path_2468_00000083078347260413797860000011782882398966977671_">
	<path class="st0" d="M1.9,65.5c-0.7-0.1-1.3-0.7-1.4-1.4V1.9c0-0.8,0.7-1.4,1.5-1.4h40.9c0.9,0,1.5,0.6,1.6,1.4v62.2
		c0,0.8-0.7,1.4-1.5,1.4H1.9z"/>
	<path d="M43,1c0.5,0,1,0.4,1,0.9v62.2c0,0.5-0.5,0.9-1,0.9h-0.1H2.1H1.9C1.4,65,1,64.6,1,64.1V1.9C1,1.4,1.5,1,2,1h0.1H43L43,1
		 M43,0L43,0H2.1C2,0,2,0,2,0C0.9,0,0,0.8,0,1.9v62.2C0,65.2,0.9,66,2,66h0.1l0,0H43h0.1c1.1,0,1.9-0.8,2-1.9V1.9
		C45,0.8,44.1,0,43,0L43,0z"/>
</g>
<g class="st1">
	<path d="M12.3,34.5v-23h4.6v10.2l9.4-10.2h6.2l-8.6,8.9l9.1,14h-6l-6.3-10.8l-3.8,3.8v6.9H12.3z"/>
</g>
<path id="Path_2471" class="st2" d="M16.8,41.7c-0.2-0.1-0.5-0.1-0.7,0c-1.6,1-8.6,5.5-8.6,10.7c0,2.7,2.2,4.9,4.9,4.9l0,0
	c0.9,0,1.7-0.2,2.4-0.6c0.1-0.1,0.3,0,0.3,0.1s0,0.1,0,0.2c-0.4,1.1-1.5,2-2.4,2.9c-0.2,0.2-0.2,0.6,0.1,0.7
	c0.1,0.1,0.3,0.1,0.4,0.1h6.3c0.4,0,0.7-0.2,0.7-0.5c0-0.1,0-0.2-0.1-0.3C19.2,59,18,58,17.6,57c-0.1-0.1,0-0.3,0.1-0.3s0.1,0,0.2,0
	c2.4,1.3,5.3,0.4,6.6-1.9c0.4-0.7,0.6-1.5,0.6-2.4C25.4,47.2,18.5,42.7,16.8,41.7z"/>
</svg>
