<?xml version="1.0" encoding="utf-8"?>
<!-- Generator: Adobe Illustrator 25.4.0, SVG Export Plug-In . SVG Version: 6.00 Build 0)  -->
<svg version="1.1" id="圖層_1" xmlns="http://www.w3.org/2000/svg" xmlns:xlink="http://www.w3.org/1999/xlink" x="0px" y="0px"
	 viewBox="0 0 45 66" style="enable-background:new 0 0 45 66;" xml:space="preserve">
<style type="text/css">
	.st0{fill:#FFFFFF;}
	.st1{fill:#CC0601;}
</style>
<g id="Path_2468_00000049903871750978763390000009342506837474240417_">
	<path class="st0" d="M1.9,65.5c-0.7-0.1-1.3-0.7-1.4-1.4l0-62.2c0-0.8,0.7-1.4,1.5-1.4c0,0,40.9,0,40.9,0c0.9,0,1.5,0.6,1.6,1.4
		l0,62.2c0,0.8-0.7,1.4-1.5,1.4L1.9,65.5z"/>
	<path d="M43,1c0.5,0,1,0.4,1,0.9l0,62.2c0,0.5-0.5,0.9-1,0.9l-0.1,0H2.1l-0.2,0C1.4,65,1,64.6,1,64.1L1,1.9C1,1.4,1.5,1,2,1l0.1,0
		L43,1L43,1 M43,0C43,0,43,0,43,0L2.1,0C2,0,2,0,2,0C0.9,0,0,0.8,0,1.9v62.2C0,65.2,0.9,66,2,66c0,0,0.1,0,0.1,0v0h40.9
		c0,0,0.1,0,0.1,0c1.1,0,1.9-0.8,2-1.9V1.9C45,0.8,44.1,0,43,0L43,0z"/>
</g>
<g>
	<path class="st1" d="M17.9,22.1c-1.1-0.5-2-1.1-2.5-2c-0.5-0.8-0.8-1.8-0.8-2.8c0-1.7,0.6-3.1,1.8-4.2c1.2-1.1,2.9-1.7,5.1-1.7
		c2.2,0,3.9,0.6,5.1,1.7c1.2,1.1,1.8,2.5,1.8,4.2c0,1.1-0.3,2-0.8,2.8c-0.6,0.8-1.3,1.5-2.3,1.9c1.3,0.5,2.2,1.3,2.9,2.2
		c0.7,1,1,2.1,1,3.4c0,2.1-0.7,3.8-2,5.2c-1.4,1.3-3.2,2-5.4,2c-2.1,0-3.8-0.5-5.2-1.6c-1.6-1.3-2.5-3.1-2.5-5.3
		c0-1.2,0.3-2.4,0.9-3.4S16.6,22.6,17.9,22.1z M18.4,27.5c0,1.2,0.3,2.2,0.9,2.8c0.6,0.7,1.4,1,2.3,1c0.9,0,1.7-0.3,2.3-1
		c0.6-0.7,0.9-1.6,0.9-2.8c0-1.1-0.3-1.9-0.9-2.6c-0.6-0.7-1.4-1-2.3-1c-1.1,0-1.9,0.4-2.4,1.1C18.7,25.8,18.4,26.6,18.4,27.5z
		 M18.8,17.6c0,0.9,0.2,1.6,0.7,2.1c0.5,0.5,1.2,0.7,2,0.7c0.8,0,1.5-0.2,2-0.7c0.5-0.5,0.8-1.2,0.8-2.1c0-0.8-0.2-1.5-0.7-2
		s-1.2-0.7-2-0.7c-0.8,0-1.5,0.3-2,0.8C19.1,16.1,18.8,16.8,18.8,17.6z"/>
</g>
<g>
	<polygon class="st1" points="16.3,40.3 7.5,51 16.3,61.9 25.4,51.1 	"/>
</g>
</svg>
