<?xml version="1.0" encoding="utf-8"?>
<!-- Generator: Adobe Illustrator 25.4.0, SVG Export Plug-In . SVG Version: 6.00 Build 0)  -->
<svg version="1.1" id="圖層_1" xmlns="http://www.w3.org/2000/svg" xmlns:xlink="http://www.w3.org/1999/xlink" x="0px" y="0px"
	 viewBox="0 0 45 66" style="enable-background:new 0 0 45 66;" xml:space="preserve">
<style type="text/css">
	.st0{fill:#FFFFFF;}
	.st1{fill:#191919;}
</style>
<g id="Path_2468_00000083078347260413797860000011782882398966977671_">
	<path class="st0" d="M1.9,65.5c-0.7-0.1-1.3-0.7-1.4-1.4l0-62.2c0-0.8,0.7-1.4,1.5-1.4c0,0,40.9,0,40.9,0c0.9,0,1.5,0.6,1.6,1.4
		l0,62.2c0,0.8-0.7,1.4-1.5,1.4L1.9,65.5z"/>
	<path d="M43,1c0.5,0,1,0.4,1,0.9l0,62.2c0,0.5-0.5,0.9-1,0.9l-0.1,0H2.1l-0.2,0C1.4,65,1,64.6,1,64.1L1,1.9C1,1.4,1.5,1,2,1l0.1,0
		L43,1L43,1 M43,0C43,0,43,0,43,0L2.1,0C2,0,2,0,2,0C0.9,0,0,0.8,0,1.9v62.2C0,65.2,0.9,66,2,66c0,0,0.1,0,0.1,0v0h40.9
		c0,0,0.1,0,0.1,0c1.1,0,1.9-0.8,2-1.9V1.9C45,0.8,44.1,0,43,0L43,0z"/>
</g>
<g>
	<path d="M28.8,17.1l-4.3,0.5c-0.1-0.9-0.4-1.5-0.8-1.9c-0.4-0.4-1-0.6-1.7-0.6c-0.9,0-1.7,0.4-2.4,1.3s-1,2.6-1.2,5.2
		c1.1-1.3,2.5-1.9,4.1-1.9c1.8,0,3.4,0.7,4.7,2.1s2,3.2,2,5.4c0,2.4-0.7,4.2-2.1,5.7c-1.4,1.4-3.1,2.1-5.3,2.1
		c-2.3,0-4.2-0.9-5.7-2.7c-1.5-1.8-2.2-4.8-2.2-8.9c0-4.2,0.8-7.2,2.3-9.1c1.6-1.9,3.6-2.8,6.1-2.8c1.7,0,3.2,0.5,4.3,1.5
		C27.8,13.8,28.5,15.3,28.8,17.1z M18.9,26.7c0,1.4,0.3,2.5,1,3.3c0.7,0.8,1.4,1.2,2.3,1.2c0.8,0,1.5-0.3,2-1
		c0.5-0.6,0.8-1.7,0.8-3.1c0-1.5-0.3-2.6-0.9-3.3c-0.6-0.7-1.3-1-2.2-1c-0.8,0-1.6,0.3-2.1,1S18.9,25.4,18.9,26.7z"/>
</g>
<path id="Path_2471" class="st1" d="M16.8,41.7c-0.2-0.1-0.5-0.1-0.7,0c-1.6,1-8.6,5.5-8.6,10.7c0,2.7,2.2,4.9,4.9,4.9c0,0,0,0,0,0
	c0.9,0,1.7-0.2,2.4-0.6c0.1-0.1,0.3,0,0.3,0.1c0,0.1,0,0.1,0,0.2c-0.4,1.1-1.5,2-2.4,2.9c-0.2,0.2-0.2,0.6,0.1,0.7
	c0.1,0.1,0.3,0.1,0.4,0.1h6.3c0.4,0,0.7-0.2,0.7-0.5c0-0.1,0-0.2-0.1-0.3c-0.9-0.9-2.1-1.9-2.5-2.9c-0.1-0.1,0-0.3,0.1-0.3
	c0.1,0,0.1,0,0.2,0c2.4,1.3,5.3,0.4,6.6-1.9c0.4-0.7,0.6-1.5,0.6-2.4C25.4,47.2,18.5,42.7,16.8,41.7z"/>
</svg>
