<?xml version="1.0" encoding="utf-8"?>
<!-- Generator: Adobe Illustrator 24.1.1, SVG Export Plug-In . SVG Version: 6.00 Build 0)  -->
<svg version="1.1" id="圖層_1" xmlns="http://www.w3.org/2000/svg" xmlns:xlink="http://www.w3.org/1999/xlink" x="0px" y="0px"
	 viewBox="0 0 45 66" style="enable-background:new 0 0 45 66;" xml:space="preserve">
<style type="text/css">
	.st0{fill:#FFFFFF;}
	.st1{fill:#CC0601;}
</style>
<g id="Path_2468_00000049903871750978763390000009342506837474240417_">
	<path class="st0" d="M1.9,65.5c-0.7-0.1-1.3-0.7-1.4-1.4V1.9c0-0.8,0.7-1.4,1.5-1.4h40.9c0.9,0,1.5,0.6,1.6,1.4v62.2
		c0,0.8-0.7,1.4-1.5,1.4H1.9z"/>
	<path d="M43,1c0.5,0,1,0.4,1,0.9v62.2c0,0.5-0.5,0.9-1,0.9h-0.1H2.1H1.9C1.4,65,1,64.6,1,64.1V1.9C1,1.4,1.5,1,2,1h0.1H43L43,1
		 M43,0L43,0H2.1C2,0,2,0,2,0C0.9,0,0,0.8,0,1.9v62.2C0,65.2,0.9,66,2,66h0.1l0,0H43h0.1c1.1,0,1.9-0.8,2-1.9V1.9
		C45,0.8,44.1,0,43,0L43,0z"/>
</g>
<g>
	<polygon class="st1" points="16.3,40.3 7.5,51 16.3,61.9 25.4,51.1 	"/>
</g>
<g>
	<path class="st1" d="M34.6,34.5h-5l-2-5.2h-9.2l-1.9,5.2h-4.9l8.9-23h4.9L34.6,34.5z M26,25.4l-3.2-8.5l-3.1,8.5H26z"/>
</g>
</svg>
