<?xml version="1.0" encoding="utf-8"?>
<!-- Generator: Adobe Illustrator 25.4.0, SVG Export Plug-In . SVG Version: 6.00 Build 0)  -->
<svg version="1.1" id="圖層_1" xmlns="http://www.w3.org/2000/svg" xmlns:xlink="http://www.w3.org/1999/xlink" x="0px" y="0px"
	 viewBox="0 0 45 66" style="enable-background:new 0 0 45 66;" xml:space="preserve">
<style type="text/css">
	.st0{fill:#FFFFFF;}
	.st1{fill:#CC0601;}
</style>
<g id="Path_2468_00000054253315529184178430000007662481205538886549_">
	<path class="st0" d="M1.9,65.5c-0.7-0.1-1.3-0.7-1.4-1.4l0-62.2c0-0.8,0.7-1.4,1.5-1.4c0,0,40.9,0,40.9,0c0.9,0,1.5,0.6,1.6,1.4
		l0,62.2c0,0.8-0.7,1.4-1.5,1.4L1.9,65.5z"/>
	<path d="M43,1c0.5,0,1,0.4,1,0.9l0,62.2c0,0.5-0.5,0.9-1,0.9l-0.1,0H2.1l-0.2,0C1.4,65,1,64.6,1,64.1L1,1.9C1,1.4,1.5,1,2,1l0.1,0
		L43,1L43,1 M43,0C43,0,43,0,43,0L2.1,0C2,0,2,0,2,0C0.9,0,0,0.8,0,1.9v62.3C0,65.2,0.9,66,2,66c0,0,0.1,0,0.1,0v0h40.9
		c0,0,0.1,0,0.1,0c1.1,0,1.9-0.8,2-1.9V1.9C45,0.8,44.1,0,43,0L43,0z"/>
</g>
<g>
	<path class="st1" d="M16.1,15.9v-4.1h15.1V15c-1.2,1.2-2.5,3-3.8,5.3c-1.3,2.3-2.3,4.7-2.9,7.3c-0.7,2.6-1,4.9-1,6.9h-4.2
		c0.1-3.2,0.7-6.4,2-9.7s2.9-6.3,5-8.9H16.1z"/>
</g>
<g>
	<path class="st1" d="M21.5,41.6c-4-0.1-4.9,2.9-5.1,4.4c-0.2-1.5-1.1-4.5-5.1-4.4c-5.2,0.1-5.9,6-4.1,8.9c1.8,2.9,2.8,3.9,4.6,5.8
		c1.7,1.8,3.8,3.8,4.5,5c0,0,0,0.1,0.1,0.1c0,0,0.1-0.1,0.1-0.1c0.8-1.2,2.8-3.2,4.5-5c1.8-1.9,2.8-2.8,4.6-5.8
		C27.4,47.6,26.7,41.7,21.5,41.6z"/>
</g>
</svg>
