<?xml version="1.0" encoding="UTF-8"?><svg xmlns="http://www.w3.org/2000/svg" xmlns:xlink="http://www.w3.org/1999/xlink" viewBox="0 0 118 35"><defs><style>.cls-1{fill:url(#_命名漸層_995);}.cls-2,.cls-3{fill:#fff;}.cls-3{mix-blend-mode:soft-light;opacity:.5;}.cls-4{fill:url(#_命名漸層_6);}.cls-5{isolation:isolate;}.cls-6{fill:url(#_命名漸層_1077-4);}.cls-7{fill:url(#_命名漸層_1077-2);}.cls-8{fill:url(#_命名漸層_1077-3);}.cls-9{fill:url(#_命名漸層_1077);}.cls-10{fill:url(#_命名漸層_1077-6);}.cls-11{fill:url(#_命名漸層_107);}.cls-12{fill:url(#_命名漸層_1119);}.cls-13{fill:url(#_命名漸層_6-2);}.cls-14{fill:none;}.cls-15{fill:url(#_命名漸層_1077-5);}.cls-16{fill:url(#_命名漸層_53);}.cls-17{fill:url(#_命名漸層_1126);}.cls-18{fill:url(#_命名漸層_107-2);}.cls-19{fill:url(#_命名漸層_6-3);}.cls-20{fill:#ededed;}</style><linearGradient id="_命名漸層_1077" x1="75.5" y1="20.2" x2="77.67" y2="20.2" gradientTransform="matrix(1, 0, 0, 1, 0, 0)" gradientUnits="userSpaceOnUse"><stop offset="0" stop-color="#ff7ec5"/><stop offset=".46" stop-color="#ff83bf"/><stop offset="1" stop-color="#ff92b2"/></linearGradient><linearGradient id="_命名漸層_1077-2" x1="78.18" y1="20.12" x2="78.92" y2="20.12" xlink:href="#_命名漸層_1077"/><linearGradient id="_命名漸層_1077-3" x1="74.25" y1="20.17" x2="74.92" y2="20.17" xlink:href="#_命名漸層_1077"/><linearGradient id="_命名漸層_1077-4" x1="77.63" y1="20.12" x2="78.25" y2="20.12" xlink:href="#_命名漸層_1077"/><linearGradient id="_命名漸層_1077-5" x1="74.92" y1="20.16" x2="75.47" y2="20.16" xlink:href="#_命名漸層_1077"/><linearGradient id="_命名漸層_1119" x1="57.47" y1="13.57" x2="45.86" y2="30.42" gradientTransform="matrix(1, 0, 0, 1, 0, 0)" gradientUnits="userSpaceOnUse"><stop offset=".03" stop-color="#1aafff"/><stop offset=".94" stop-color="#0048e6"/></linearGradient><linearGradient id="_命名漸層_6" x1="197.38" y1="12.86" x2="197.24" y2="29.17" gradientTransform="translate(-157.27)" gradientUnits="userSpaceOnUse"><stop offset="0" stop-color="#e966a6"/><stop offset=".28" stop-color="#e964a2"/><stop offset=".57" stop-color="#eb5f96"/><stop offset=".85" stop-color="#ed5782"/><stop offset="1" stop-color="#f05274"/></linearGradient><linearGradient id="_命名漸層_6-2" x1="48.32" y1="1.81" x2="48.04" y2="35.77" gradientTransform="matrix(1, 0, 0, 1, 0, 0)" xlink:href="#_命名漸層_6"/><linearGradient id="_命名漸層_6-3" x1="43.98" y1="1.77" x2="43.7" y2="35.74" gradientTransform="matrix(1, 0, 0, 1, 0, 0)" xlink:href="#_命名漸層_6"/><linearGradient id="_命名漸層_995" x1="38.05" y1="7.86" x2="44.42" y2="33.14" gradientTransform="matrix(1, 0, 0, 1, 0, 0)" gradientUnits="userSpaceOnUse"><stop offset="0" stop-color="#9ce7ff"/><stop offset=".43" stop-color="#00b3ff"/><stop offset=".69" stop-color="#2e80ff"/></linearGradient><linearGradient id="_命名漸層_107" x1="30.58" y1="3.3" x2="30.45" y2="31.56" gradientTransform="matrix(1, 0, 0, 1, 0, 0)" gradientUnits="userSpaceOnUse"><stop offset="0" stop-color="#ff82b8"/><stop offset=".16" stop-color="#fd78b3"/><stop offset=".41" stop-color="#f85fa6"/><stop offset=".42" stop-color="#f85fa6"/><stop offset=".58" stop-color="#f85ba2"/><stop offset=".73" stop-color="#fa5196"/><stop offset=".83" stop-color="#fc488a"/></linearGradient><linearGradient id="_命名漸層_1077-6" x1="46.45" y1="-.03" x2="17.21" y2="13.96" xlink:href="#_命名漸層_1077"/><linearGradient id="_命名漸層_1126" x1="20.87" y1="10.07" x2="32.73" y2="28.51" gradientTransform="matrix(1, 0, 0, 1, 0, 0)" gradientUnits="userSpaceOnUse"><stop offset="0" stop-color="#e61f7a"/><stop offset="0" stop-color="#e6207a"/><stop offset=".09" stop-color="#ee3b8d"/><stop offset=".19" stop-color="#f34f9b"/><stop offset=".28" stop-color="#f65ba3"/><stop offset=".37" stop-color="#f85fa6"/><stop offset=".91" stop-color="#ed3a8c"/><stop offset="1" stop-color="#ec3388"/></linearGradient><linearGradient id="_命名漸層_53" x1="39.39" y1="21.7" x2="51.47" y2="39.5" gradientTransform="matrix(1, 0, 0, 1, 0, 0)" gradientUnits="userSpaceOnUse"><stop offset="0" stop-color="#ff82b8"/><stop offset=".16" stop-color="#fd78b3"/><stop offset=".41" stop-color="#f85fa6"/><stop offset=".42" stop-color="#f85fa6"/><stop offset=".55" stop-color="#f85ca2"/><stop offset=".68" stop-color="#fa5396"/><stop offset=".81" stop-color="#fd4582"/><stop offset=".86" stop-color="#ff3e78"/></linearGradient><linearGradient id="_命名漸層_107-2" x1="23.85" y1="6.25" x2="23.85" y2="36.54" xlink:href="#_命名漸層_107"/></defs><g class="cls-5"><g id="_層_1"><g><g><g><path class="cls-9" d="M77.37,19.45c-.2-.21-.47-.34-.78-.34-.34,0-.63,.17-.83,.41-.15,.19-.26,.42-.26,.68,0,.22,.08,.41,.19,.58,.19,.3,.51,.51,.9,.51s.69-.2,.88-.49c.12-.18,.21-.38,.21-.6,0-.29-.12-.56-.31-.75Z"/><path class="cls-7" d="M78.71,20.2c0,.46-.15,.88-.4,1.23l.17,.12c.28-.38,.44-.85,.44-1.36,0-.58-.22-1.11-.58-1.52l-.16,.13c.33,.37,.53,.86,.53,1.39Z"/><path class="cls-8" d="M74.46,20.2c0-.49,.18-.94,.46-1.3l-.17-.12c-.31,.39-.5,.88-.5,1.42,0,.51,.17,.98,.45,1.36l.16-.13c-.25-.35-.4-.77-.4-1.23Z"/><path class="cls-6" d="M78.01,20.2c0,.3-.1,.59-.26,.82l.19,.14c.19-.27,.31-.6,.31-.96,0-.43-.17-.82-.43-1.11l-.19,.15c.23,.25,.38,.59,.38,.96Z"/><path class="cls-15" d="M75.15,20.2c0-.34,.12-.64,.32-.89l-.19-.14c-.22,.28-.36,.64-.36,1.03,0,.35,.11,.68,.3,.95l.19-.15c-.16-.23-.25-.51-.25-.8Z"/></g><g><g><path class="cls-2" d="M67.58,29.27l.04-1.28,.28-5.23,.22-3.34c-.82,.01-1.45,.02-1.88,.02-.65,0-1.39,0-2.22-.02,0,1.05-.03,2.41-.1,4.06-.07,1.65-.16,3.32-.29,4.99-.07,.92-.18,2.1-.33,3.56,1.49-.01,3.23-.02,5.21-.02,1.47,0,3.01,0,4.63,.02l.2-2.79c-.83,.04-2.06,.06-3.68,.06-.32,0-1.01,0-2.07-.03Z"/><path class="cls-2" d="M74.8,22.59c-.02,1.21-.04,2.28-.07,3.2-.03,.92-.07,1.76-.11,2.51-.04,.76-.08,1.38-.12,1.87-.04,.49-.11,1.11-.19,1.86,.85-.01,1.54-.02,2.06-.02s1.16,0,1.89,.02c0-.63,.01-1.82,.04-3.57,.01-.99,.04-1.92,.09-2.8,.05-.88,.12-1.9,.23-3.07-.82,.01-1.45,.02-1.89,.02-.48,0-1.12,0-1.92-.02Z"/><path class="cls-2" d="M87.13,22.59l-1.47,4.08c-.25,.7-.4,1.09-.43,1.18l-.24,.77c-.37-1.47-.71-2.73-1.02-3.79-.31-1.06-.51-1.81-.62-2.23-.56,.01-1.15,.02-1.78,.02s-1.26,0-1.96-.02l2.21,6.4,.98,3.03c.75-.01,1.43-.02,2.03-.02,.55,0,1.2,0,1.92,.02l.51-1.24,2.37-5.45,1.27-2.74c-.66,.01-1.29,.02-1.9,.02s-1.22,0-1.88-.02Z"/><path class="cls-2" d="M101.29,27.41c.08-.43,.12-.82,.12-1.17,0-.59-.09-1.14-.28-1.65-.19-.51-.5-.97-.95-1.38-.44-.41-.98-.69-1.62-.85-.64-.16-1.31-.24-2.01-.24s-1.34,.09-1.99,.27c-.65,.18-1.22,.48-1.71,.91-.5,.42-.9,1.01-1.21,1.77-.31,.75-.47,1.52-.47,2.31,0,.56,.08,1.1,.24,1.63,.16,.53,.39,.99,.69,1.37,.3,.38,.68,.71,1.12,.97,.45,.26,.98,.44,1.59,.54,.62,.1,1.29,.15,2.02,.15,.5,0,.99-.02,1.48-.07,.49-.05,1.09-.14,1.8-.28,.23-1.42,.38-2.31,.46-2.68-.76,.23-1.41,.39-1.93,.49s-.98,.14-1.39,.14c-.68,0-1.26-.16-1.74-.47-.47-.31-.71-.8-.71-1.46,0-.08,0-.17,0-.27h6.48Zm-6.27-1.99c.04-.14,.11-.28,.2-.43,.09-.15,.21-.28,.35-.39,.14-.11,.29-.2,.47-.26,.17-.06,.35-.09,.54-.09,.27,0,.5,.05,.72,.16,.21,.1,.38,.27,.49,.5,.11,.23,.17,.5,.17,.82,0,.07,0,.16,0,.27h-3.05c.04-.25,.09-.44,.13-.58Z"/></g><path class="cls-2" d="M67.23,16.48c.02-1.75,.06-3.54,.12-5.36,.06-1.82,.13-3.36,.21-4.63,.31,0,.58-.01,.81-.02,.23,0,.45-.01,.67-.01,.64,0,1.11,.05,1.41,.15,.3,.1,.53,.25,.67,.45,.14,.2,.21,.43,.21,.7,0,.31-.09,.61-.28,.9-.19,.28-.47,.49-.83,.63-.37,.14-.78,.2-1.23,.2-.32,0-.65-.03-.98-.09l.95,2.62c.29,.79,.51,1.4,.66,1.84,.07,.2,.16,.48,.27,.84,.26,.87,.44,1.47,.54,1.79,1.01-.01,1.74-.02,2.18-.02,.35,0,1.04,0,2.05,.02-.14-.35-.24-.58-.3-.69l-1.24-2.71c-.15-.34-.3-.67-.43-1l-.48-1.18c.62-.24,1.1-.48,1.44-.71,.34-.23,.63-.51,.85-.82,.23-.32,.39-.66,.5-1.02,.1-.36,.16-.75,.16-1.16,0-.37-.05-.72-.14-1.04-.1-.32-.23-.61-.4-.85-.17-.24-.39-.46-.65-.65-.26-.19-.58-.36-.96-.49-.38-.14-.8-.22-1.26-.27-.62-.06-1.32-.09-2.11-.09-.67,0-1.36,.01-2.07,.04-.71,.03-1.31,.04-1.8,.04s-1.1,0-1.87-.03c0,.75-.01,1.77-.04,3.04-.02,1.27-.06,2.48-.11,3.63-.05,1.15-.11,2.16-.18,3.03s-.16,1.85-.28,2.93c.93-.01,1.58-.02,1.94-.02,.31,0,.98,0,2.01,.02Z"/><path class="cls-2" d="M83.35,16.72c.51,0,1.09-.02,1.75-.07,.65-.05,1.21-.1,1.68-.16,.47-.06,1.05-.15,1.76-.28,.02-.79,.07-1.96,.15-3.51,.08-1.55,.16-2.74,.24-3.59-.74,.01-1.76,.02-3.07,.02-.76,0-1.57,0-2.41-.02,0,.4,0,.72-.02,.95-.01,.23-.02,.41-.03,.53l-.07,1.14h.98c.07,0,.31,0,.71,.02l-.11,2.01c-.65,.16-1.26,.24-1.8,.24-.66,0-1.26-.13-1.8-.39-.54-.26-.93-.64-1.18-1.13-.25-.5-.37-1.06-.37-1.7s.11-1.21,.32-1.78c.22-.56,.54-1.04,.98-1.45,.43-.4,.95-.7,1.56-.9,.6-.19,1.25-.29,1.93-.29,.26,0,.55,.02,.88,.05,.33,.03,.68,.08,1.05,.14,.37,.06,.69,.14,.96,.21,.27,.08,.63,.19,1.08,.34-.08-1.1-.12-2.11-.12-3.01-1.64-.33-3.14-.49-4.49-.49-1.85,0-3.36,.31-4.53,.94s-2.07,1.48-2.69,2.55c-.62,1.07-.93,2.24-.93,3.49,0,.76,.12,1.49,.35,2.2,.23,.71,.56,1.32,.99,1.84,.43,.52,.96,.93,1.6,1.23,.64,.3,1.36,.52,2.17,.66,.81,.14,1.63,.2,2.47,.2Z"/></g></g><g><g><path class="cls-12" d="M46.02,22l8.3,4.79c1.14,.66,2.56-.16,2.56-1.48V15.73c0-1.32-1.42-2.14-2.56-1.48l-8.3,4.79c-1.14,.66-1.14,2.3,0,2.96Z"/><path class="cls-3" d="M54.32,14.21l-8.3,4.79c-.64,.37-.9,1.04-.83,1.68,.06-.51,.33-.99,.83-1.28l8.3-4.79c1.14-.66,2.56,.16,2.56,1.48v-.4c0-1.32-1.42-2.14-2.56-1.48Z"/><path class="cls-4" d="M40.02,26.53c0-.14-.02-.27-.02-.41,0,0-.11,.18,.02,.41Z"/><path class="cls-13" d="M48.08,26.01c.02,.06,.04,.11,.06,.17l.03-.03c-.02-.09-.02-.13-.02-.13h-.07Z"/><path class="cls-19" d="M39.57,25.83s.02,.02,.03,.04l.41,.26c0,.14,.02,.27,.02,.41,.54,.95,.86,2.02,.74,3.17,3.98-.45,6.29-2.38,6.29-2.38,.34-.31,.65-.63,.93-.97l-.58-.37-7.84-.17Z"/><path class="cls-20" d="M39.54,25.83l.06,.04s-.02-.02-.03-.04h-.03Z"/><path class="cls-1" d="M50.2,19.46c-.51-2.85-1.84-5.04-3.98-6.57-1.61-1.15-3.4-1.72-5.36-1.7h-10.77l.71,4.52c.29,1.88,1.91,3.27,3.82,3.27h6.18c.63,0,1.68,.28,1.68,1.48-.04,1-.69,1.47-1.4,1.54h0c.25-.03,5.18-.56,7,4.01,.02,.06,.04,.11,.06,.17l.03-.03c1.16-1.46,1.86-3.21,2.08-5.27,.05-.47,.03-.95-.05-1.41Z"/><path class="cls-14" d="M30.36,8.31c-.96,.05-1.84,.29-2.64,.72,1.21-.52,2.14-.68,2.64-.72Z"/><path class="cls-11" d="M30.36,8.31c.13,0,.26-.02,.39-.02,0,0-.14,0-.39,.02Z"/><path class="cls-10" d="M30.75,.51c-1.92,0-3.76,.39-5.51,1.16-1.75,.77-3.25,1.81-4.51,3.12-1.26,1.31-2.26,2.86-3.01,4.67s-1.12,3.71-1.12,5.7,.37,3.89,1.12,5.7c3.32-7.67,7.32-10.66,10.01-11.82,.8-.43,1.68-.67,2.64-.72,.25-.02,.39-.02,.39-.02h15.09c1.79,0,3.35-1.23,3.76-2.97l1.14-4.81H30.75Z"/><path class="cls-17" d="M17.71,20.86c.75,1.81,1.75,3.37,3.01,4.67,1.26,1.31,2.77,2.34,4.51,3.12,1.75,.77,3.58,1.16,5.51,1.16h8.68c.46,0,.9-.05,1.33-.09h0c.12-1.15-.2-2.22-.74-3.17-.13-.23,.59-.23,.43-.45l.58-.84-.86-1.01c-1.69-2.35-5.14-2.23-5.14-2.23h-4.29c-1.83,0-3.4-.66-4.69-2s-1.94-2.96-1.94-4.85,.65-3.51,1.94-4.85c.51-.53,1.07-.95,1.66-1.27-2.69,1.16-6.68,4.15-10.01,11.82Z"/><path class="cls-16" d="M52.18,33.55c-3.3-4.73-4.03-7.39-4.04-7.38-.02-.06-.04-.11-.06-.17-1.86-4.69-7.02-4.01-7.02-4.01h.01c-.06,0-.12,0-.18,0h-7.27s3.27,.1,5.15,2.84c.54,.95,1.55,2.85,1.99,4.86h0c1.19,3.3,4.71,4.83,7.82,4.83h2.88c.51,0,1.27-.2,.72-.99Z"/></g><path class="cls-18" d="M28.37,31.45l-1.73,3.09h-7.31l2.8-5.51c.74,.48,1.53,.95,2.36,1.32,1.26,.56,2.55,.9,3.88,1.1Z"/></g><path class="cls-3" d="M17.71,9.93c.75-1.81,1.75-3.37,3.01-4.67,1.26-1.3,2.77-2.34,4.51-3.12,1.75-.77,3.58-1.16,5.51-1.16h19.87l.13-.53H30.75c-1.92,0-3.76,.39-5.51,1.16-1.75,.77-3.25,1.81-4.51,3.12-1.26,1.31-2.26,2.86-3.01,4.67s-1.12,3.71-1.12,5.7c0,.09,.01,.18,.01,.26,.03-1.89,.39-3.71,1.11-5.43Z"/><path class="cls-3" d="M40.89,22.44c.06,0,.12,0,.18-.01h-.01s5.16-.68,7.02,4.01c.02,.06,.04,.11,.06,.17,0-.01,.74,2.65,4.04,7.38,.05,.08,.09,.14,.12,.21,.11-.15,.11-.37-.12-.7-3.3-4.73-4.03-7.39-4.04-7.38-.02-.06-.04-.11-.06-.17-1.86-4.69-7.02-4.01-7.02-4.01h.01c-.06,0-.12,0-.18,0h-7.27s.95,.03,2.12,.49h5.15Z"/><path class="cls-3" d="M31.38,16.24l-.71-4.52h10.77c1.96-.01,3.75,.55,5.36,1.7,.34,.24,.65,.51,.95,.78-.46-.5-.97-.97-1.54-1.38-1.61-1.15-3.4-1.72-5.36-1.7h-10.77l.71,4.52c.15,.98,.67,1.82,1.39,2.4-.41-.51-.69-1.13-.8-1.81Z"/></g></g></g></svg>