<?xml version="1.0" encoding="UTF-8"?><svg xmlns="http://www.w3.org/2000/svg" xmlns:xlink="http://www.w3.org/1999/xlink" viewBox="0 0 50 50"><defs><style>.cls-1{fill:url(#_命名漸層_995);}.cls-2{fill:#fff;mix-blend-mode:soft-light;opacity:.5;}.cls-3{fill:url(#_命名漸層_5-3);}.cls-4{isolation:isolate;}.cls-5{fill:url(#_命名漸層_5-2);}.cls-6{fill:url(#_命名漸層_1077);}.cls-7{fill:url(#_命名漸層_5);}.cls-8{fill:url(#_命名漸層_107);}.cls-9{fill:url(#_命名漸層_1119);}.cls-10{fill:none;}.cls-11{fill:url(#_命名漸層_53);}.cls-12{fill:url(#_命名漸層_1126);}.cls-13{fill:url(#_命名漸層_107-2);}.cls-14{fill:#ededed;}</style><linearGradient id="_命名漸層_1119" x1="49.38" y1="20.37" x2="35.73" y2="40.2" gradientTransform="matrix(1, 0, 0, 1, 0, 0)" gradientUnits="userSpaceOnUse"><stop offset=".03" stop-color="#1aafff"/><stop offset=".94" stop-color="#0048e6"/></linearGradient><linearGradient id="_命名漸層_5" x1="186.23" y1="19.54" x2="186.07" y2="38.73" gradientTransform="translate(-157.27)" gradientUnits="userSpaceOnUse"><stop offset="0" stop-color="#e966a6"/><stop offset=".28" stop-color="#e964a2"/><stop offset=".57" stop-color="#eb5f96"/><stop offset=".85" stop-color="#ed5782"/><stop offset="1" stop-color="#f05274"/></linearGradient><linearGradient id="_命名漸層_5-2" x1="38.63" y1="6.54" x2="38.3" y2="46.5" gradientTransform="matrix(1, 0, 0, 1, 0, 0)" xlink:href="#_命名漸層_5"/><linearGradient id="_命名漸層_5-3" x1="33.51" y1="6.49" x2="33.18" y2="46.45" gradientTransform="matrix(1, 0, 0, 1, 0, 0)" xlink:href="#_命名漸層_5"/><linearGradient id="_命名漸層_995" x1="26.54" y1="13.66" x2="34.04" y2="43.4" gradientTransform="matrix(1, 0, 0, 1, 0, 0)" gradientUnits="userSpaceOnUse"><stop offset="0" stop-color="#9ce7ff"/><stop offset=".43" stop-color="#00b3ff"/><stop offset=".69" stop-color="#2e80ff"/></linearGradient><linearGradient id="_命名漸層_107" x1="17.75" y1="8.3" x2="17.6" y2="41.54" gradientTransform="matrix(1, 0, 0, 1, 0, 0)" gradientUnits="userSpaceOnUse"><stop offset="0" stop-color="#ff82b8"/><stop offset=".16" stop-color="#fd78b3"/><stop offset=".41" stop-color="#f85fa6"/><stop offset=".42" stop-color="#f85fa6"/><stop offset=".58" stop-color="#f85ba2"/><stop offset=".73" stop-color="#fa5196"/><stop offset=".83" stop-color="#fc488a"/></linearGradient><linearGradient id="_命名漸層_1077" x1="36.43" y1="4.38" x2="2.02" y2="20.83" gradientTransform="matrix(1, 0, 0, 1, 0, 0)" gradientUnits="userSpaceOnUse"><stop offset="0" stop-color="#ff7ec5"/><stop offset=".46" stop-color="#ff83bf"/><stop offset="1" stop-color="#ff92b2"/></linearGradient><linearGradient id="_命名漸層_1126" x1="6.32" y1="16.26" x2="20.28" y2="37.95" gradientTransform="matrix(1, 0, 0, 1, 0, 0)" gradientUnits="userSpaceOnUse"><stop offset="0" stop-color="#e61f7a"/><stop offset="0" stop-color="#e6207a"/><stop offset=".09" stop-color="#ee3b8d"/><stop offset=".19" stop-color="#f34f9b"/><stop offset=".28" stop-color="#f65ba3"/><stop offset=".37" stop-color="#f85fa6"/><stop offset=".91" stop-color="#ed3a8c"/><stop offset="1" stop-color="#ec3388"/></linearGradient><linearGradient id="_命名漸層_53" x1="28.11" y1="29.95" x2="42.33" y2="50.89" gradientTransform="matrix(1, 0, 0, 1, 0, 0)" gradientUnits="userSpaceOnUse"><stop offset="0" stop-color="#ff82b8"/><stop offset=".16" stop-color="#fd78b3"/><stop offset=".41" stop-color="#f85fa6"/><stop offset=".42" stop-color="#f85fa6"/><stop offset=".55" stop-color="#f85ca2"/><stop offset=".68" stop-color="#fa5396"/><stop offset=".81" stop-color="#fd4582"/><stop offset=".86" stop-color="#ff3e78"/></linearGradient><linearGradient id="_命名漸層_107-2" x1="9.84" y1="11.76" x2="9.84" y2="47.4" xlink:href="#_命名漸層_107"/></defs><g class="cls-4"><g id="_層_1"><g><g><g><path class="cls-9" d="M35.92,30.3l9.77,5.64c1.34,.77,3.02-.19,3.02-1.74v-11.28c0-1.55-1.68-2.52-3.02-1.74l-9.77,5.64c-1.34,.77-1.34,2.71,0,3.48Z"/><path class="cls-2" d="M45.69,21.12l-9.77,5.64c-.75,.43-1.06,1.22-.98,1.98,.07-.6,.38-1.17,.98-1.51l9.77-5.64c1.34-.77,3.02,.19,3.02,1.74v-.47c0-1.55-1.68-2.52-3.02-1.74Z"/><path class="cls-7" d="M28.86,35.63c0-.16-.03-.32-.03-.48,0,0-.13,.21,.03,.48Z"/><path class="cls-5" d="M38.34,35.01c.03,.06,.05,.13,.08,.2,.01-.01,.02-.03,.03-.04-.02-.1-.03-.16-.03-.16h-.08Z"/><path class="cls-3" d="M28.33,34.8s.02,.03,.03,.04l.48,.31c0,.17,.02,.32,.03,.48,.64,1.12,1.01,2.38,.87,3.73,4.68-.53,7.4-2.8,7.4-2.8,.4-.36,.76-.75,1.1-1.15l-.69-.43-9.22-.19Z"/><path class="cls-14" d="M28.29,34.8l.07,.04s-.02-.03-.03-.04h-.03Z"/><path class="cls-1" d="M40.83,27.31c-.6-3.35-2.16-5.93-4.69-7.73-1.9-1.35-4-2.02-6.31-2.01h-12.67l.83,5.32c.35,2.21,2.25,3.85,4.49,3.85h7.27c.74,0,1.98,.33,1.98,1.74-.04,1.18-.82,1.73-1.65,1.81h.01c.29-.03,6.09-.66,8.23,4.72,.03,.06,.05,.13,.08,.2,.01-.01,.02-.03,.03-.04,1.37-1.72,2.19-3.78,2.45-6.2,.06-.55,.04-1.11-.06-1.66Z"/><path class="cls-10" d="M17.49,14.19c-1.12,.06-2.16,.34-3.11,.85,1.42-.61,2.52-.8,3.11-.85Z"/><path class="cls-8" d="M17.49,14.19c.15,0,.3-.02,.46-.02,0,0-.16,0-.46,.02Z"/><path class="cls-6" d="M17.95,5.01c-2.26,0-4.42,.46-6.48,1.37-2.06,.91-3.83,2.13-5.31,3.67-1.48,1.54-2.66,3.37-3.54,5.5s-1.32,4.36-1.32,6.71,.44,4.58,1.32,6.71c3.91-9.02,8.61-12.54,11.77-13.91,.94-.51,1.98-.79,3.11-.85,.29-.03,.46-.02,.46-.02h17.75c2.11,0,3.94-1.45,4.43-3.5l1.34-5.66H17.95Z"/><path class="cls-12" d="M2.61,28.95c.88,2.13,2.06,3.96,3.54,5.49,1.48,1.54,3.25,2.76,5.31,3.67,2.06,.91,4.22,1.37,6.48,1.37h10.22c.54-.01,1.06-.05,1.56-.11h0c.14-1.36-.24-2.61-.87-3.73-.15-.27,.69-.27,.51-.52l.69-.99-1.01-1.19c-1.99-2.76-6.05-2.62-6.05-2.62h-5.05c-2.16,.01-4-.78-5.52-2.35s-2.28-3.48-2.28-5.71,.76-4.13,2.28-5.71c.6-.62,1.25-1.12,1.95-1.49-3.16,1.37-7.86,4.88-11.77,13.91Z"/><path class="cls-11" d="M43.17,43.89c-3.89-5.57-4.74-8.7-4.75-8.68-.02-.07-.05-.13-.08-.2-2.19-5.52-8.26-4.71-8.26-4.71h.02c-.07,0-.14,0-.21,0h-8.55s3.84,.11,6.06,3.34c.64,1.12,1.82,3.35,2.34,5.72h0c1.4,3.89,5.55,5.69,9.2,5.69h3.39c.6,0,1.5-.24,.85-1.16Z"/></g><path class="cls-13" d="M15.15,41.42l-2.04,3.64H4.52l3.29-6.49c.88,.56,1.79,1.12,2.78,1.56,1.48,.66,3,1.05,4.57,1.3Z"/></g><path class="cls-2" d="M2.61,16.1c.88-2.13,2.06-3.96,3.54-5.5,1.48-1.53,3.25-2.76,5.31-3.67,2.06-.91,4.22-1.36,6.48-1.36h23.37l.15-.62H17.95c-2.26,0-4.42,.46-6.48,1.37-2.06,.91-3.83,2.13-5.31,3.67-1.48,1.54-2.66,3.37-3.54,5.5s-1.32,4.36-1.32,6.71c0,.11,.01,.21,.01,.31,.04-2.23,.46-4.36,1.3-6.39Z"/><path class="cls-2" d="M29.89,30.81c.07,0,.14,0,.21-.02h-.02s6.07-.8,8.26,4.72c.03,.06,.05,.13,.08,.2,.01-.01,.87,3.11,4.75,8.68,.06,.09,.1,.17,.14,.25,.13-.18,.13-.44-.14-.82-3.89-5.57-4.74-8.7-4.75-8.68-.02-.07-.05-.13-.08-.2-2.19-5.52-8.26-4.71-8.26-4.71h.02c-.07,0-.14,0-.21,0h-8.55s1.12,.04,2.5,.57h6.06Z"/><path class="cls-2" d="M18.7,23.52l-.83-5.32h12.67c2.31-.02,4.41,.65,6.31,2.01,.4,.28,.76,.6,1.11,.92-.54-.59-1.14-1.14-1.82-1.62-1.9-1.35-4-2.02-6.31-2.01h-12.67l.83,5.32c.18,1.15,.79,2.14,1.64,2.83-.48-.6-.81-1.32-.94-2.13Z"/></g></g></g></svg>